<?xml version="1.0" encoding="UTF-8" standalone="no"?>
<!-- Created with Inkscape (http://www.inkscape.org/) -->

<svg
   xmlns:dc="http://purl.org/dc/elements/1.1/"
   xmlns:cc="http://creativecommons.org/ns#"
   xmlns:rdf="http://www.w3.org/1999/02/22-rdf-syntax-ns#"
   xmlns:svg="http://www.w3.org/2000/svg"
   xmlns="http://www.w3.org/2000/svg"
   xmlns:xlink="http://www.w3.org/1999/xlink"
   xmlns:sodipodi="http://sodipodi.sourceforge.net/DTD/sodipodi-0.dtd"
   xmlns:inkscape="http://www.inkscape.org/namespaces/inkscape"
   width="110mm"
   height="110mm"
   viewBox="0 0 389.76377 389.76381"
   id="svg4742"
   version="1.1"
   inkscape:version="0.91 r13725"
   sodipodi:docname="revolution.svg">
  <defs
     id="defs4744">
    <linearGradient
       inkscape:collect="always"
       id="linearGradient5315">
      <stop
         style="stop-color:#ff2a2a;stop-opacity:1;"
         offset="0"
         id="stop5317" />
      <stop
         style="stop-color:#ff8a4b;stop-opacity:1"
         offset="1"
         id="stop5319" />
    </linearGradient>
    <linearGradient
       inkscape:collect="always"
       xlink:href="#linearGradient5315"
       id="linearGradient5321"
       x1="278.59348"
       y1="1037.7288"
       x2="103.21134"
       y2="666.30011"
       gradientUnits="userSpaceOnUse" />
  </defs>
  <sodipodi:namedview
     id="base"
     pagecolor="#ffffff"
     bordercolor="#666666"
     borderopacity="1.0"
     inkscape:pageopacity="0.0"
     inkscape:pageshadow="2"
     inkscape:zoom="0.7"
     inkscape:cx="145.67427"
     inkscape:cy="436.47975"
     inkscape:document-units="px"
     inkscape:current-layer="layer1"
     showgrid="false"
     fit-margin-top="0"
     fit-margin-left="0"
     fit-margin-right="0"
     fit-margin-bottom="0"
     inkscape:window-width="1858"
     inkscape:window-height="1057"
     inkscape:window-x="1912"
     inkscape:window-y="-8"
     inkscape:window-maximized="1" />
  <metadata
     id="metadata4747">
    <rdf:RDF>
      <cc:Work
         rdf:about="">
        <dc:format>image/svg+xml</dc:format>
        <dc:type
           rdf:resource="http://purl.org/dc/dcmitype/StillImage" />
        <dc:title></dc:title>
      </cc:Work>
    </rdf:RDF>
  </metadata>
  <g
     inkscape:label="Layer 1"
     inkscape:groupmode="layer"
     id="layer1"
     transform="translate(-4.3868108e-8,-662.59838)">
    <path
       style="fill:url(#linearGradient5321);stroke:#280b0b;stroke-width:28.60368776;fill-opacity:1"
       d="m 110.17839,1040.5227 c 0,-0.7483 5.1608,-19.9039 8.51059,-31.5891 1.81317,-6.325 4.27669,-17.30667 5.47448,-24.40384 1.95054,-11.55727 2.05236,-13.80094 0.97562,-21.5 -1.15971,-8.29233 -1.54523,-9.16159 -10.90861,-24.59613 -5.33853,-8.8 -11.90465,-20.05 -14.59137,-25 -2.68673,-4.95 -10.25699,-17.325 -16.82281,-27.5 -6.56581,-10.175 -15.87042,-25.025 -20.67689,-33 -4.80648,-7.975 -12.38899,-20.54949 -16.850029,-27.94331 -9.70196,-16.08023 -10.05344,-18.2291 -4.64816,-28.41791 3.83044,-7.22029 7.416069,-12.37849 25.468779,-36.63877 6.75294,-9.075 14.91749,-20.775 18.14344,-26 8.534,-13.82232 15.98492,-23.30846 19.18756,-24.42866 2.95623,-1.03401 11.27485,0.28577 19.693,3.12437 2.49942,0.8428 14.8944,6.26176 27.5444,12.04214 12.65,5.78037 30.26829,13.56964 39.15175,17.30947 24.74898,10.41904 24.34825,10.11422 24.34825,18.52092 0,14.21539 -7.54679,21.64357 -26.97134,26.54741 -11.40377,2.87895 -22.71337,2.29422 -30.34907,-1.56909 -6.38024,-3.2281 -16.2113,-10.49247 -25.09468,-18.54292 -6.27582,-5.68739 -9.58492,-6.87211 -9.58492,-3.43157 0,0.74695 4.5,5.86754 10,11.37909 5.50001,5.51155 10.00001,10.54356 10.00001,11.18224 0,2.07968 -4.27805,13.32812 -5.63066,14.80488 -1.14412,1.24915 -2.60293,1.19806 -11.09335,-0.38852 -5.37679,-1.00474 -14.19279,-2.88963 -19.5911,-4.18863 -7.5998,-1.82875 -10.27931,-2.11338 -11.87183,-1.26109 -2.0294,1.0861 -2.03118,1.12628 -0.13339,3.02406 1.7581,1.75811 10.02289,4.6 37.82032,13.00473 13.26427,4.01053 22.54768,7.71041 25.00001,9.96367 1.1,1.01071 7.175,10.64481 13.5,21.4091 6.325,10.7643 16.69802,27.54252 23.05115,37.28492 10.73075,16.45539 23.47622,37.41506 27.31186,44.91381 7.14621,13.97097 -10.20718,24.29419 -43.36301,25.79587 -5.225,0.23665 -9.8375,0.44682 -10.25,0.46703 -0.4125,0.0202 -0.75,0.73472 -0.75,1.58779 0,0.85306 1.6875,2.25831 3.75,3.12278 4.37882,1.83532 22.05394,1.44605 33.52406,-0.73833 6.35549,-1.21034 6.9425,-1.1645 9.5,0.74176 5.36762,4.00083 6.02443,6.44686 6.66545,24.82276 0.83337,23.89037 2.52462,46.56577 3.68579,49.41737 l 0.98436,2.4174 2.14212,-2.1421 c 2.06359,-2.0636 2.15191,-3.0872 2.40885,-27.9174 0.28519,-27.55918 0.67994,-32.58673 3.01731,-38.42838 1.86491,-4.66088 4.97697,-6.72788 13.28694,-8.82506 8.26937,-2.08694 8.81312,-3.86176 2.11108,-6.89071 -6.56301,-2.96611 -11.19497,-8.71423 -19.04243,-23.63112 -3.47212,-6.6 -7.98855,-14.925 -10.0365,-18.5 -2.04796,-3.575 -6.4298,-11.225 -9.73743,-17 -3.30764,-5.775 -7.24945,-12.975 -8.75958,-16 -1.51014,-3.025 -7.34009,-12.7 -12.95545,-21.5 -15.02065,-23.5393 -16.00265,-25.48082 -13.6297,-26.94739 0.50317,-0.31098 8.04067,1.64459 16.75,4.34571 8.70932,2.70112 20.36762,6.29494 25.90732,7.98628 5.5397,1.69134 11.8398,4.35561 14.0002,5.9206 6.7264,4.87258 18.59241,15.03401 26.6984,22.86311 12.1055,11.692 19.03838,17.31312 21.36526,17.3228 3.47095,0.0144 19.41925,-11.31551 38.34522,-27.24111 5.06555,-4.2625 9.63115,-7.75 10.14579,-7.75 1.89175,0 2.11776,3.3971 0.91989,13.82667 -2.12084,18.46571 -9.9709,63.20891 -11.75873,67.02156 -0.94181,2.00848 -9.01982,10.85177 -17.95114,19.65177 -15.88214,15.64863 -16.25266,16.1098 -16.87197,21 -0.76922,6.07384 1.02714,39.39717 3.04746,56.53207 0.80853,6.8574 1.47396,13.0304 1.47874,13.7179 0.007,0.9905 -18.15334,1.25 -87.49131,1.25 -48.125,0 -87.5,-0.1849 -87.5,-0.4109 z M 277.4795,874.28839 c -0.65939,-0.26805 -6.40662,-6.08606 -12.77161,-12.92892 -11.47648,-12.33809 -11.56089,-12.46437 -10.15006,-15.1837 1.5627,-3.01207 24.95674,-28.22256 35.02275,-37.74214 30.74438,-29.07541 32.41993,-30.5 35.87316,-30.5 2.41295,0 4.54545,1.01072 7.53925,3.5733 5.37446,4.60034 20.18049,23.12803 20.20144,25.27929 0.0232,2.38612 -41.95221,42.33702 -59.01604,56.16961 -3.025,2.45218 -7.40245,6.15035 -9.72766,8.21816 -4.24907,3.77868 -4.76741,4.01025 -6.97123,3.1144 z m -36.30111,-34.84681 c -1.925,-0.67995 -9.40307,-4.19583 -16.61793,-7.81308 -14.41579,-7.22751 -16.04996,-9.03288 -12.39626,-13.69487 1.07762,-1.375 6.39431,-9.025 11.81488,-17 9.96941,-14.6675 13.49979,-19.93315 27.73686,-41.37019 9.56644,-14.40439 21.09738,-27.82173 25.46489,-29.63081 4.26947,-1.76847 6.27151,-0.6399 20.98302,11.82843 12.45377,10.55484 16.40562,15.81131 15.52032,20.64398 -1.04813,5.72148 -10.91621,18.96475 -24.99182,33.53983 -21.77573,22.54843 -30.70461,32.07871 -34.94838,37.3023 -5.23362,6.44198 -8.00157,7.80649 -12.56558,6.19441 z m -57,-19.97094 c -12.95106,-4.02525 -37.43806,-12.5739 -38.15812,-13.32137 -0.7222,-0.74969 3.51757,-11.97509 5.1331,-13.59062 0.5782,-0.5782 3.61936,0.26723 7.98814,2.22067 5.66381,2.53249 8.38736,3.15431 13.81578,3.15431 7.91459,0 18.48448,-2.72137 29.67417,-7.64004 6.4867,-2.85136 8.37658,-3.30298 10.25,-2.44939 1.26331,0.5756 2.29693,1.5254 2.29693,2.11066 0,0.58526 -3.6386,8.0199 -8.08578,16.52144 l -8.08578,15.45733 -3.66422,-0.066 c -2.01532,-0.0363 -7.03922,-1.11492 -11.16422,-2.39699 z m 33.75,-39.22634 c -2.30527,-0.60243 -2.21794,-1.45373 0.75,-7.31067 1.99946,-3.94574 2.5,-6.42061 2.5,-12.36099 0,-6.75419 -0.25377,-7.69915 -2.79945,-10.42431 -1.5397,-1.64826 -7.9522,-5.5717 -14.25,-8.71876 -6.2978,-3.14707 -11.99973,-6.16513 -12.67094,-6.70681 -1.49535,-1.20675 0.0232,-4.36565 9.41031,-19.57514 11.32864,-18.35528 16.24519,-24.22694 20.25625,-24.19127 1.40461,0.0125 5.25383,1.51017 8.55383,3.32816 10.69408,5.89145 30.93377,18.71654 33.47144,21.20954 3.77766,3.71115 4.31701,2.76708 -22.99223,40.24581 -4.68643,6.43158 -10.67167,14.73127 -13.30052,18.44377 -4.66056,6.58169 -5.29279,7.01084 -8.92869,6.06067 z m -49.75,-55.17665 c -10.15315,-4.24582 -18.59236,-8.00422 -31.21138,-13.90001 l -3.71136,-1.734 3.86023,-8.63994 c 4.23274,-9.47366 9.84501,-18.83366 13.85683,-23.11006 3.57754,-3.81348 8.53532,-3.62205 22.47417,0.86775 22.2804,7.17669 26.79651,10.28396 24.8018,17.0647 -1.77653,6.03907 -16.00261,34.31601 -17.25076,34.28907 -0.72574,-0.0157 -6.49453,-2.19255 -12.81953,-4.83751 z"
       id="path5301"
       inkscape:connector-curvature="0" />
  </g>
</svg>
