<?xml version="1.0" encoding="UTF-8" standalone="no"?>
<!-- Created with Inkscape (http://www.inkscape.org/) -->

<svg
   xmlns:dc="http://purl.org/dc/elements/1.1/"
   xmlns:cc="http://creativecommons.org/ns#"
   xmlns:rdf="http://www.w3.org/1999/02/22-rdf-syntax-ns#"
   xmlns:svg="http://www.w3.org/2000/svg"
   xmlns="http://www.w3.org/2000/svg"
   xmlns:xlink="http://www.w3.org/1999/xlink"
   xmlns:sodipodi="http://sodipodi.sourceforge.net/DTD/sodipodi-0.dtd"
   xmlns:inkscape="http://www.inkscape.org/namespaces/inkscape"
   width="512"
   height="512"
   viewBox="0 0 512.00001 512.00001"
   id="svg2"
   version="1.1"
   inkscape:version="0.91 r13725"
   sodipodi:docname="defence-minus.svg"
   inkscape:export-xdpi="95.343628"
   inkscape:export-ydpi="95.343628"
  <defs
     id="defs4">
    <linearGradient
       inkscape:collect="always"
       id="linearGradient4140">
      <stop
         style="stop-color:#fdf6c6;stop-opacity:1"
         offset="0"
         id="stop4142" />
      <stop
         id="stop5346"
         offset="0.5"
         style="stop-color:#6083b1;stop-opacity:1" />
      <stop
         style="stop-color:#1d002b;stop-opacity:1"
         offset="1"
         id="stop4144" />
    </linearGradient>
    <linearGradient
       inkscape:collect="always"
       xlink:href="#linearGradient4140"
       id="linearGradient4146"
       x1="145.95265"
       y1="507.66086"
       x2="407.10828"
       y2="1052.2606"
       gradientUnits="userSpaceOnUse" />
  </defs>
  <sodipodi:namedview
     id="base"
     pagecolor="#ffffff"
     bordercolor="#666666"
     borderopacity="1.0"
     inkscape:pageopacity="0.0"
     inkscape:pageshadow="2"
     inkscape:zoom="0.7"
     inkscape:cx="42.025317"
     inkscape:cy="236.62532"
     inkscape:document-units="px"
     inkscape:current-layer="layer1"
     showgrid="false"
     units="px"
     inkscape:window-width="1858"
     inkscape:window-height="1057"
     inkscape:window-x="-8"
     inkscape:window-y="-8"
     inkscape:window-maximized="1" />
  <metadata
     id="metadata7">
    <rdf:RDF>
      <cc:Work
         rdf:about="">
        <dc:format>image/svg+xml</dc:format>
        <dc:type
           rdf:resource="http://purl.org/dc/dcmitype/StillImage" />
        <dc:title />
      </cc:Work>
    </rdf:RDF>
  </metadata>
  <g
     inkscape:label="Layer 1"
     inkscape:groupmode="layer"
     id="layer1"
     transform="translate(0,-540.36216)">
    <circle
       style="opacity:1;fill:url(#linearGradient4146);fill-opacity:1;stroke:#000000;stroke-width:34.79672084;stroke-linecap:butt;stroke-linejoin:round;stroke-miterlimit:4;stroke-dasharray:none;stroke-dashoffset:0;stroke-opacity:1"
       id="path4138"
       cx="256"
       cy="796.36218"
       r="224.25386" />
    <flowRoot
       xml:space="preserve"
       id="flowRoot5314"
       style="font-style:normal;font-weight:normal;font-size:240.94958496px;line-height:125%;font-family:sans-serif;text-align:start;letter-spacing:0px;word-spacing:0px;text-anchor:start;fill:#000000;fill-opacity:1;stroke:none;stroke-width:0;stroke-linecap:butt;stroke-linejoin:miter;stroke-opacity:1"
       transform="matrix(1.0044282,0,0,1.0044282,26.953385,-4.1592187)"><flowRegion
         id="flowRegion5316"><rect
           id="rect5318"
           width="494.80719"
           height="456.08313"
           x="50.631279"
           y="610.68872"
           style="font-size:240.94958496px;fill:#000000;fill-opacity:1;stroke:none;stroke-width:0" /></flowRegion><flowPara
         id="flowPara5320"
         style="font-style:normal;font-variant:normal;font-weight:bold;font-stretch:normal;font-size:240.94958496px;font-family:'AR DESTINE';-inkscape-font-specification:'AR DESTINE Thin';fill:#000000;fill-opacity:1;stroke:none;stroke-width:0">-</flowPara></flowRoot>    <path
       style="fill:#000000"
       d="m 342.66654,913.42607 c -10.10002,-16.96014 -13.17728,-25.40493 -10.45344,-28.68696 1.24059,-1.49479 4.30715,-17.11356 3.51549,-17.9052 -0.20287,-0.20287 -1.6999,2.8452 -3.32671,6.77351 -4.78089,11.54467 -5.64948,12.09267 -17.05741,10.76174 l -9.68325,-1.12973 -1.1853,-4.79965 c -0.86825,-3.5159 -0.59446,-8.29181 1.02368,-17.85593 1.21494,-7.18098 2.0284,-13.1747 1.8077,-13.31941 -35.49968,-23.27653 -59.33603,-36.02487 -78.47625,-41.97128 -6.69554,-2.08014 -12.1737,-4.21708 -12.1737,-4.74873 0,-0.53163 4.39897,-3.70434 9.77548,-7.05043 8.71433,-5.42339 9.9476,-6.66671 11.36099,-11.45359 0.87205,-2.95339 2.22672,-6.03904 3.01043,-6.85702 0.78369,-0.81795 3.89736,-5.68843 6.91928,-10.82328 4.87727,-8.28743 17.42044,-22.31167 26.19506,-29.28808 5.78858,-4.6023 20.59852,-11.64291 30.55393,-14.52528 8.38305,-2.42711 12.76725,-2.86606 28.57451,-2.86088 16.06936,0.006 19.97354,0.41182 28.00821,2.91662 33.94202,10.58142 59.27587,35.79951 65.54267,65.24317 2.71511,12.75658 1.67669,34.64593 -2.19911,46.35658 -1.58616,4.79251 -2.92242,9.27383 -2.96947,9.95846 -0.0471,0.68466 -0.73217,3.76556 -1.52252,6.84646 -2.5474,9.9302 -2.69277,11.41565 -1.43969,14.71152 1.88916,4.96883 0.36235,8.8995 -3.77855,9.72769 -1.95882,0.39177 -4.76147,2.33536 -6.2281,4.31907 -3.38,4.57168 -8.44857,4.75629 -16.97418,0.61822 -3.3865,-1.6437 -10.63856,-3.61565 -16.11572,-4.38212 -5.47717,-0.76648 -12.7083,-2.22245 -16.06917,-3.2355 -3.36088,-1.01306 -6.78973,-1.84192 -7.61968,-1.84192 -1.83528,0 -3.64764,12.05875 -2.12186,14.11791 1.53948,2.07765 4.352,14.22385 3.58205,15.46963 -0.35759,0.5786 0.71645,3.45801 2.38678,6.39867 1.67032,2.94064 3.03694,5.83823 3.03694,6.43908 0,1.32819 -9.14183,6.12228 -11.67457,6.12228 -0.99841,0 -2.89943,-1.82053 -4.22452,-4.04562 z"
       id="path5371"
       inkscape:connector-curvature="0" />
  </g>
</svg>
