<?xml version="1.0" encoding="UTF-8" standalone="no"?>
<!-- Created with Inkscape (http://www.inkscape.org/) -->

<svg
   xmlns:dc="http://purl.org/dc/elements/1.1/"
   xmlns:cc="http://creativecommons.org/ns#"
   xmlns:rdf="http://www.w3.org/1999/02/22-rdf-syntax-ns#"
   xmlns:svg="http://www.w3.org/2000/svg"
   xmlns="http://www.w3.org/2000/svg"
   xmlns:xlink="http://www.w3.org/1999/xlink"
   xmlns:sodipodi="http://sodipodi.sourceforge.net/DTD/sodipodi-0.dtd"
   xmlns:inkscape="http://www.inkscape.org/namespaces/inkscape"
   width="512"
   height="512"
   viewBox="0 0 512.00001 512.00001"
   id="svg2"
   version="1.1"
   inkscape:version="0.91 r13725"
   sodipodi:docname="offense-plus.svg"
   inkscape:export-xdpi="95.343628"
   inkscape:export-ydpi="95.343628"
  <defs
     id="defs4">
    <linearGradient
       inkscape:collect="always"
       id="linearGradient4140">
      <stop
         style="stop-color:#fcf2b0;stop-opacity:1"
         offset="0"
         id="stop4142" />
      <stop
         style="stop-color:#ff0000;stop-opacity:1"
         offset="1"
         id="stop4144" />
    </linearGradient>
    <linearGradient
       inkscape:collect="always"
       xlink:href="#linearGradient4140"
       id="linearGradient4146"
       x1="175.24707"
       y1="577.36139"
       x2="407.10828"
       y2="1052.2606"
       gradientUnits="userSpaceOnUse" />
  </defs>
  <sodipodi:namedview
     id="base"
     pagecolor="#ffffff"
     bordercolor="#666666"
     borderopacity="1.0"
     inkscape:pageopacity="0.0"
     inkscape:pageshadow="2"
     inkscape:zoom="0.98994949"
     inkscape:cx="65.847194"
     inkscape:cy="255.54998"
     inkscape:document-units="px"
     inkscape:current-layer="layer1"
     showgrid="false"
     units="px"
     inkscape:window-width="1858"
     inkscape:window-height="1057"
     inkscape:window-x="-8"
     inkscape:window-y="-8"
     inkscape:window-maximized="1" />
  <metadata
     id="metadata7">
    <rdf:RDF>
      <cc:Work
         rdf:about="">
        <dc:format>image/svg+xml</dc:format>
        <dc:type
           rdf:resource="http://purl.org/dc/dcmitype/StillImage" />
        <dc:title></dc:title>
      </cc:Work>
    </rdf:RDF>
  </metadata>
  <g
     inkscape:label="Layer 1"
     inkscape:groupmode="layer"
     id="layer1"
     transform="translate(0,-540.36216)">
    <circle
       style="opacity:1;fill:url(#linearGradient4146);fill-opacity:1;stroke:#000000;stroke-width:34.79672084;stroke-linecap:butt;stroke-linejoin:round;stroke-miterlimit:4;stroke-dasharray:none;stroke-dashoffset:0;stroke-opacity:1"
       id="path4138"
       cx="256"
       cy="796.36218"
       r="224.25386" />
    <path
       style="fill:#000000"
       d="m 387.93507,848.8679 c -0.53129,0.16698 -0.97156,0.44861 -0.97833,0.62587 -0.007,0.17725 -0.13088,-0.0538 -0.27572,-0.51338 -0.30351,-0.96306 -1.6061,-2.05012 -2.90432,-2.42376 -0.4931,-0.14191 -0.95047,-0.35382 -1.01634,-0.47089 -0.34053,-0.60515 -10.10633,-3.4692 -11.03214,-3.23541 -0.28293,0.0715 -0.5552,-0.0429 -0.60505,-0.25403 -0.0499,-0.21119 -0.42872,-0.40561 -0.84192,-0.43205 -0.41322,-0.0264 -1.59748,-0.32931 -2.63169,-0.67297 -1.15394,-0.38348 -1.91953,-0.45917 -1.98165,-0.19594 -0.0611,0.25872 -0.14218,0.25571 -0.2043,-0.008 -0.0567,-0.24005 -1.94314,-0.99865 -4.19215,-1.68579 -5.74415,-1.75501 -13.29623,-4.64758 -19.9633,-7.6463 -2.8266,-1.27134 -3.72939,-1.72141 -5.37563,-2.67991 -0.16473,-0.0959 -2.07281,-1.06647 -4.24021,-2.15682 -2.1674,-1.09036 -5.01058,-2.61848 -6.31819,-3.39583 -4.86894,-2.89451 -5.379,-3.17897 -6.30271,-3.51491 -0.51958,-0.18897 -0.98575,-0.16965 -1.03592,0.0429 -0.0517,0.21899 -0.13639,0.19535 -0.19539,-0.0545 -0.0573,-0.24261 -1.28253,-0.8078 -2.72281,-1.25601 l -2.6187,-0.81492 0.86856,1.13668 c 0.47825,0.6259 0.88353,1.61671 0.90191,2.205 0.0252,0.80835 0.34049,1.38793 1.29558,2.38172 1.81507,1.88864 3.79932,4.83309 3.56627,5.29207 -0.22599,0.44506 -0.7226,-0.018 -2.36778,-2.20794 -1.02076,-1.35872 -1.19626,-1.46696 -2.51766,-1.55281 -1.21251,-0.0787 -1.60129,0.0762 -2.65603,1.05886 l -1.23557,1.15113 0.78925,0.78926 c 0.55348,0.55348 0.779,1.1683 0.75482,2.05793 -0.0332,1.22306 -0.22107,1.49086 -5.22574,7.44987 -2.85521,3.39967 -5.41512,6.40363 -5.68867,6.67548 l -3.78217,2.05165 c -1.19013,0.20969 -3.52564,-0.66301 -4.60677,-1.72136 -1.03931,-1.01737 -2.022,-1.32607 -1.56296,-0.49096 0.16959,0.30852 0.98112,2.02049 1.80342,3.8044 1.651,3.5817 2.19427,4.69421 2.95401,6.04923 0.28089,0.50097 1.28965,2.58412 2.24167,4.62922 0.95203,2.0451 2.00088,4.01495 2.33077,4.37741 0.32987,0.36254 0.49452,0.68391 0.36586,0.71429 -0.1287,0.0303 0.63635,1.79079 1.70003,3.91202 1.06369,2.12123 2.27534,4.64281 2.69253,5.60348 0.97956,2.25564 1.49827,2.74326 3.27965,3.08319 2.08636,0.3981 3.93412,2.24688 3.64273,3.64509 -0.25531,1.22583 -0.969,1.90861 -6.29525,6.02294 -2.35264,1.81727 -5.71134,4.42989 -7.46377,5.80581 -3.65208,2.86732 -7.01885,5.12473 -8.33911,5.5914 -1.33742,0.47269 -1.94473,-0.23339 -2.26865,-2.63769 -0.25826,-1.91696 -0.79685,-3.5565 -1.20177,-3.65836 -0.0808,-0.0203 -0.12313,-0.19128 -0.094,-0.37987 0.0812,-0.52585 -0.37518,-1.95566 -0.74112,-2.3216 -0.17966,-0.17966 -0.38659,-0.82855 -0.45985,-1.44196 -0.0733,-0.61343 -0.20654,-1.04202 -0.29614,-0.95241 -0.0896,0.0896 -0.25349,-0.27212 -0.36425,-0.80372 -0.11075,-0.53165 -0.39822,-1.16351 -0.63888,-1.40416 -0.24061,-0.24061 -0.45314,-0.8796 -0.47226,-1.41997 -0.0191,-0.54035 -0.20373,-1.15144 -0.41021,-1.35792 -0.20651,-0.20651 -0.69245,-1.43654 -1.07992,-2.73344 -0.38746,-1.2969 -0.78143,-2.43974 -0.8755,-2.53966 -0.42621,-0.45274 -0.71679,-1.2944 -0.51612,-1.49507 0.12153,-0.12152 0.0281,-0.41382 -0.20761,-0.64953 -0.23572,-0.23572 -0.47901,-0.79207 -0.54063,-1.23634 -0.0616,-0.44426 -0.28865,-0.99114 -0.50451,-1.2153 -0.21586,-0.22411 -0.4228,-1.07756 -0.45988,-1.8965 -0.0371,-0.81897 -0.16665,-1.58822 -0.28794,-1.7095 -0.12126,-0.12126 -0.52368,-1.06809 -0.89424,-2.10403 -1.41664,-3.96038 -4.18886,-6.05711 -8.08185,-6.11261 -1.16266,-0.0165 -2.32771,-0.24391 -2.58906,-0.50525 -0.45131,-0.45131 -0.59925,-0.34288 -2.93987,2.15407 l -2.46464,2.6293 -1.09242,-0.94553 -1.09242,-0.94554 -2.80971,2.88835 c -1.80492,1.85539 -2.9987,2.88834 -3.33812,2.88835 -0.72665,-10e-6 -0.89515,0.23346 -0.47311,0.6555 0.19546,0.19546 0.42526,0.28551 0.51066,0.20011 0.27316,-0.27316 1.86488,1.66425 2.30659,2.80754 0.23466,0.60738 0.29729,1.35395 0.1392,1.65908 -0.15811,0.3051 -0.19833,0.98256 -0.0894,1.50541 0.10892,0.52287 0.074,1.07466 -0.0774,1.22617 -0.3765,0.37651 -0.22505,1.95595 0.18971,1.97856 0.1841,0.01 0.13665,0.072 -0.10546,0.13765 -0.24205,0.0657 -0.39621,0.30542 -0.34254,0.53273 0.0537,0.2273 -0.0652,0.7757 -0.26414,1.21868 -0.21895,0.48753 -0.18671,0.84675 0.0816,0.91007 0.2807,0.0663 0.27482,0.14445 -0.0161,0.21311 -0.48834,0.11526 -0.75525,1.31924 -0.31551,1.42305 0.1432,0.0338 0.056,0.29905 -0.19365,0.58942 -0.24964,0.29043 -0.46589,1.08393 -0.48046,1.76345 -0.0146,0.67952 -0.11078,1.31983 -0.21385,1.4229 -0.10305,0.10306 -0.27482,0.70735 -0.38173,1.34284 -0.10688,0.63551 -0.54971,1.53865 -0.98408,2.00695 -0.55511,0.59827 -0.6604,0.90908 -0.35453,1.04531 0.5972,0.26598 0.12866,1.14536 -2.66735,5.00621 -1.31359,1.81384 -2.06141,3.03845 -1.66183,2.72133 0.69283,-0.54983 0.78603,-0.51708 2.00938,0.70627 1.47655,1.47656 1.40388,1.82506 -0.78218,3.75084 l -1.24293,1.09494 -1.33204,-1.18769 -1.332,-1.18767 -0.61134,0.90281 c -2.26945,3.35155 -2.35087,3.57366 -2.14776,5.85923 0.27089,3.04842 0.95292,13.17568 0.94979,14.1033 -0.005,1.43918 -0.45115,2.92832 -0.87576,2.92215 -0.51538,-0.008 -5.76112,-3.65202 -6.60286,-4.58742 -0.91422,-1.01597 -1.23544,-2.39855 -1.25088,-5.38449 -0.008,-1.48301 -0.17631,-2.73474 -0.37474,-2.78157 -0.77257,-0.18238 -0.80553,-0.0305 -2.05091,9.45205 -0.18763,1.42861 -0.52513,3.63442 -0.75002,4.90178 -0.22487,1.26737 -0.53332,3.49493 -0.68544,4.95014 -0.32458,3.10515 -0.57464,5.00144 -0.82538,6.25884 -0.34948,1.75251 -0.80902,5.58273 -0.79416,6.61898 0.008,0.57581 -0.0465,0.82343 -0.12171,0.55026 -0.0752,-0.27315 -0.26527,0.73149 -0.4224,2.23257 -0.15714,1.50109 -0.14935,2.807 0.0173,2.90208 0.16666,0.0951 0.13148,0.21334 -0.0782,0.26283 -0.20968,0.0495 -0.16065,0.62729 0.109,1.28398 0.50347,1.22614 0.45725,1.52996 -0.41134,2.70447 -0.27702,0.37452 -0.68448,1.11327 -0.9055,1.64163 -0.40431,0.9666 -2.74239,3.30339 -2.8514,2.85139 -0.0323,-0.13354 -0.36223,-0.21463 -0.733,-0.18015 -0.37079,0.0344 -1.16667,-0.0941 -1.7686,-0.2857 -2.7028,-0.86027 -3.83467,-1.87732 -20.49133,-18.41258 -14.63958,-14.53287 -16.21915,-16.17593 -16.68931,-17.36011 -0.28561,-0.71939 -0.70015,-1.35068 -0.92117,-1.40285 -0.22103,-0.0522 -0.22156,-0.13742 -0.002,-0.18946 0.22037,-0.052 0.31036,-0.52805 0.20002,-1.05783 -0.11034,-0.52978 -0.0924,-1.32066 0.0399,-1.75748 0.17096,-0.5647 3.54209,-4.14384 11.66414,-12.38398 17.72461,-17.98224 46.14854,-47.21276 49.87385,-51.28914 2.58595,-2.82972 2.82567,-3.20306 2.3133,-3.60283 -0.84228,-0.65717 -1.01376,-1.14828 -0.5954,-1.70515 0.40634,-0.54086 0.32194,-0.74424 -0.75637,-1.82254 -0.7135,-0.71351 -1.07833,-1.27403 -0.88519,-1.36003 0.18068,-0.0804 0.25036,-0.48458 0.15479,-0.89808 -0.14699,-0.63595 -0.26335,-0.70544 -0.75482,-0.45076 -0.31958,0.16558 -0.89883,0.0853 -1.28722,-0.17846 -0.38841,-0.26375 -0.60236,-0.47955 -0.47512,-0.47983 0.30143,-10e-6 0.29433,-0.94911 -0.0148,-1.96995 -0.25212,-0.83271 0.35823,-1.78461 1.04091,-1.62346 0.7878,0.18597 1.3385,-0.92501 1.49407,-3.01425 l 0.20117,-4.25404 c 0.0509,-1.01348 -0.0271,-1.90367 -0.17333,-1.97826 -0.14614,-0.0745 -0.0938,-0.17615 0.11629,-0.22571 0.21011,-0.0496 0.47805,-0.55126 0.59543,-1.11476 0.13817,-0.66335 0.83479,-1.72227 1.97589,-3.00364 0.96938,-1.08849 1.63685,-2.00873 1.48333,-2.04498 -0.15356,-0.0363 0.0196,-0.26876 0.38478,-0.51671 0.36515,-0.24795 0.61927,-0.63967 0.56489,-0.87029 -0.12788,-0.54172 5.61228,-6.32353 6.15161,-6.19619 0.64045,0.1512 3.8612,-3.27086 3.79085,-4.02777 -0.0783,-0.8424 0.46986,-1.37912 1.11503,-1.0918 0.40168,0.17888 0.85117,-0.13637 2.14977,-1.50775 0.903,-0.9537 1.60001,-1.92768 1.54886,-2.16449 -0.12807,-0.59294 12.19615,-13.21878 12.90301,-13.21878 0.76054,0 3.44167,-2.80453 3.3743,-3.52958 -0.0308,-0.33129 0.15995,-0.92035 0.42387,-1.30905 0.26396,-0.38866 0.47985,-0.59457 0.47982,-0.45753 2e-5,0.31178 1.09048,0.4306 1.37161,0.14947 0.11436,-0.11436 0.0569,-0.35896 -0.12773,-0.54357 -0.18459,-0.1846 -0.27898,-0.46337 -0.20976,-0.61949 0.0692,-0.15612 -0.13093,-1.62628 -0.44479,-3.26706 -0.66514,-3.47696 -0.80608,-5.45478 -0.46767,-6.56316 0.48516,-1.58909 2.932,-3.41982 4.21012,-3.15001 0.23678,0.05 0.62316,-0.0967 0.85862,-0.32601 0.25394,-0.24685 0.55486,-0.24031 0.73925,0.0166 0.17109,0.23842 0.86707,0.4546 1.54661,0.48045 0.67952,0.0258 1.31364,0.12507 1.40914,0.22058 0.0955,0.0955 0.70304,0.0374 1.3501,-0.12906 1.09872,-0.2827 1.61405,-0.76174 7.79707,-7.24783 6.85045,-7.18624 7.49661,-7.95844 6.79748,-8.12347 -0.2379,-0.0562 -0.2374,-0.13989 8.3e-4,-0.19623 0.49853,-0.1177 1.11499,-3.07467 0.69062,-3.31274 -0.16312,-0.0915 -0.12983,-0.20576 0.074,-0.25387 0.2038,-0.0481 0.37797,-0.73953 0.38703,-1.53647 0.0183,-1.60992 0.19622,-1.88564 1.49133,-2.3107 0.68488,-0.22478 1.08609,-0.10514 1.72846,0.51537 l 0.83653,0.80813 2.77411,-2.64678 c 3.20678,-3.05965 3.41516,-3.19022 4.06078,-2.54459 0.36893,0.36892 0.63167,0.32742 1.12531,-0.17779 0.35423,-0.36249 0.69444,-1.02258 0.75607,-1.46685 0.0616,-0.44427 0.41153,-1.10724 0.77755,-1.47326 0.55546,-0.55546 0.56555,-0.76544 0.0611,-1.2699 -0.82086,-0.82086 -0.12085,-2.46118 1.92208,-4.50412 1.37658,-1.37658 1.64424,-1.52624 2.17455,-1.21579 0.54496,0.31902 0.59451,0.28813 0.50127,-0.31244 -0.12962,-0.83482 1.71281,-3.24034 2.36407,-3.0866 0.33044,0.078 0.56079,-0.13419 0.85371,-0.78663 0.5068,-1.12849 1.95447,-2.59545 2.26004,-2.28987 0.15014,0.15014 0.36301,-0.0627 0.60775,-0.60775 0.20719,-0.46132 0.79622,-1.25832 1.30897,-1.77108 0.51276,-0.51275 1.03628,-0.82829 1.16334,-0.70123 0.14261,0.1426 0.3592,-0.0543 0.56577,-0.51424 0.18408,-0.40993 1.41055,-1.82115 2.72546,-3.13606 1.31491,-1.31491 2.57264,-2.71639 2.79494,-3.11441 0.31148,-0.5577 0.37973,-0.5851 0.29761,-0.11944 -0.0925,0.52424 -0.0531,0.55166 0.29772,0.20716 0.22272,-0.21799 0.36636,-0.5576 0.32004,-0.75384 -0.0463,-0.19627 0.26559,-0.58994 0.69316,-0.87484 1.35975,-0.90603 3.83744,-3.68362 4.02324,-4.51017 0.0609,-0.27127 0.16946,-0.37601 0.24106,-0.2328 0.2281,0.4562 0.52067,0.23659 1.6246,-1.21945 1.36435,-1.7995 2.83125,-2.26819 3.51658,-1.12358 0.36077,0.60254 0.51622,0.63013 0.97343,0.17292 0.8707,-0.8707 3.21511,-1.11341 3.95711,-0.40968 0.13207,0.125 0.45534,0.0816 0.71869,-0.0967 0.34815,-0.23565 0.29613,-0.63465 -0.1904,-1.4616 -1.64467,-2.79534 -2.11524,-3.56467 -2.62051,-4.28416 -1.25645,-1.78916 -1.2715,-2.03586 -0.22429,-3.67488 0.18593,-0.29098 0.58466,-0.98986 0.88609,-1.55304 0.58217,-1.08773 1.71593,-1.7947 2.55891,-1.59571 0.26594,0.0628 3.2281,2.81781 6.58257,6.12229 3.35447,3.30446 6.18703,6.06935 6.29464,6.14414 0.10759,0.0748 1.24326,-0.9634 2.52372,-2.30712 1.28043,-1.34374 2.43346,-2.41825 2.56224,-2.38786 0.4521,0.10672 10.08465,-11.00412 11.21879,-12.94049 0.20731,-0.35397 0.3182,-0.40829 0.27199,-0.13321 -0.0547,0.32572 0.33298,0.50106 1.29766,0.58687 l 1.37571,0.12243 0.44963,-1.3019 c 0.24729,-0.71603 0.52309,-1.30188 0.61288,-1.30188 0.0898,6e-5 0.75127,-1.21579 1.46993,-2.70175 1.69538,-3.50546 2.60468,-4.42945 4.26501,-4.33375 1.80212,0.10386 4.91896,2.43039 6.36352,4.74999 0.57218,0.91876 1.08725,1.62353 1.1446,1.56617 0.0574,-0.0574 0.1043,0.23276 0.10429,0.64471 1e-5,0.41194 0.14902,0.78417 0.33113,0.82715 0.46143,0.10894 -2.98763,3.19702 -4.62903,4.1446 -0.74355,0.42925 -1.81065,1.20758 -2.37136,1.72963 -0.56083,0.52192 -1.04538,0.83939 -1.07706,0.70522 -0.0317,-0.13416 -0.35899,-0.0679 -0.72737,0.14713 -0.36838,0.21508 -0.59665,0.54005 -0.50725,0.72214 0.0894,0.18209 0.20113,0.84486 0.24833,1.47281 l 0.0858,1.14178 -5.44202,5.64762 c -2.99312,3.10618 -5.51861,5.89362 -5.61225,6.19428 -0.18967,0.60902 -3.93424,5.12011 -4.94614,5.95862 -0.35631,0.29524 -1.06594,0.50338 -1.57697,0.46251 -0.7908,-0.0632 -1.15515,0.16451 -2.44715,1.52977 -0.83486,0.88227 -1.77431,1.62784 -2.08751,1.65697 -0.81906,0.0761 -0.8331,0.61242 -0.0447,1.70632 1.06613,1.47918 1.54993,3.18596 1.24219,4.38214 -0.31855,1.23806 -1.43019,2.4812 -2.51149,2.80859 -0.58616,0.17747 -0.71229,0.37495 -0.62844,0.98383 0.21659,1.57274 0.57606,1.47526 2.8145,-0.76318 1.85872,-1.85872 2.19034,-2.08386 2.58405,-1.75481 1.4777,1.23507 1.79939,1.58034 1.53136,1.64361 -0.16475,0.0389 -0.25975,0.23935 -0.21105,0.44556 0.0801,0.33944 -2.35601,2.88347 -12.69258,13.25453 -1.52535,1.53007 -2.95008,2.82408 -3.16648,2.87516 -0.21642,0.0511 -0.43638,0.2746 -0.48864,0.49688 -0.1504,0.63716 -5.86256,6.3777 -5.95523,5.98459 -0.0463,-0.19638 -0.13387,-0.12679 -0.20141,0.15967 -0.1454,0.6159 -3.96663,4.75433 -5.06067,5.48075 -0.47164,0.31318 -0.84107,0.35579 -0.92438,0.10665 -0.0763,-0.22823 -0.10515,-0.0755 -0.064,0.3395 0.0865,0.87303 -1.26717,2.385 -2.45818,2.74562 -0.58304,0.17652 -0.73199,0.32548 -0.59649,0.59649 0.27884,0.5577 -1.98085,2.65714 -2.85999,2.65713 -0.67691,10e-6 -0.70998,0.0347 -0.36376,0.38086 0.32828,0.32829 0.0558,0.68724 -1.9718,2.598 -2.05915,1.94045 -2.44455,2.19065 -3.08863,2.0053 -0.40476,-0.11648 -0.76216,-0.22957 -0.7942,-0.25128 -0.0322,-0.0216 -2.40315,2.72481 -5.26912,6.1034 -2.86596,3.37858 -5.74822,6.72499 -6.40502,7.43645 -1.19404,1.29344 -1.29754,1.75486 -0.33833,1.50843 0.72278,-0.18571 3.5075,2.14095 3.50749,2.93054 2e-5,0.63708 0.46123,1.07699 2.59824,2.47826 3.41342,2.23821 11.9664,7.0275 14.12493,7.90933 1.75437,0.71672 5.98629,2.6824 6.71392,3.11855 0.44811,0.2686 0.9098,0.39331 1.02599,0.27713 0.11618,-0.11618 0.27008,-0.11016 0.34199,0.0134 0.0719,0.12356 0.4708,0.39252 0.88645,0.59772 0.59732,0.29489 0.73455,0.25698 0.65478,-0.18092 -0.0725,-0.39845 0.003,-0.36868 0.27035,0.10611 0.2042,0.36307 0.91418,0.88306 1.57774,1.15551 0.66357,0.27248 1.30632,0.55162 1.42834,0.62033 0.93334,0.5256 5.66079,2.6408 6.80863,3.04639 0.78295,0.27665 1.52416,0.60161 1.64714,0.72214 0.48855,0.47912 9.26306,2.76225 9.28011,2.41487 0.01,-0.20453 0.0721,-0.17308 0.13809,0.0699 0.14074,0.51872 3.63447,1.38379 3.63449,0.89992 0,-0.18074 0.1002,-0.11541 0.22258,0.14512 0.27682,0.58911 5.71543,1.65883 6.02649,1.18534 0.12478,-0.18998 0.29415,-0.25289 0.37655,-0.13963 0.42182,0.58001 0.95552,0.74866 2.63952,0.83408 1.58142,0.0802 3.36522,0.77968 2.50583,0.98255 -0.46216,0.10908 -0.52539,4.17803 -0.0669,4.30347 0.22862,0.0625 0.26036,0.1219 0.0705,0.13195 -0.35439,0.0187 -0.38887,0.15498 -0.54784,2.16435 -0.051,0.64484 -0.12907,1.63294 -0.17346,2.19581 -0.0444,0.5629 -0.19999,1.67804 -0.34578,2.47813 -0.6895,3.78402 -0.99344,7.47455 -0.61553,7.47455 0.18303,1e-5 0.19128,0.0718 0.0183,0.15941 -0.34654,0.17567 -0.64792,1.60464 -0.85413,4.04971 -0.074,0.87757 -0.25339,1.84991 -0.39865,2.16073 -0.14524,0.31085 -0.15554,0.6737 -0.0229,0.80634 0.24276,0.24275 -0.5264,2.4456 -1.0267,2.94046 -0.14698,0.14698 -0.70339,0.40239 -1.23468,0.56938 z m -163.70669,93.26426 c -0.184,-0.35511 -2.7544,-2.91054 -5.71202,-5.67876 -4.65223,-4.35431 -5.45919,-5.00834 -5.98353,-4.84959 -1.09474,0.33146 -0.79764,0.95633 1.6972,3.56956 2.1412,2.24281 2.57917,2.58059 3.34396,2.57923 1.13431,-0.002 4.09342,2.56651 3.7765,3.27806 -0.20728,0.46544 1.26322,2.38437 1.95173,2.54691 0.66676,0.1574 1.26936,-0.78306 0.92616,-1.44542 z m 81.92999,-105.40134 c 3.44758,-4.15114 4.2382,-5.14811 4.4312,-5.58769 0.0398,-0.0906 0.16064,-0.22985 0.26845,-0.30972 0.10805,-0.0796 0.0926,-0.4875 -0.0342,-0.90622 -0.25752,-0.85058 -7.20496,-7.34978 -8.47172,-7.92517 -0.50693,-0.23025 -0.72215,-0.54854 -0.72215,-1.06802 0,-0.54703 -0.14859,-0.75383 -0.56976,-0.79297 -0.31337,-0.0291 -0.56975,-0.20972 -0.56975,-0.40135 -10e-6,-0.19162 -0.57468,0.35503 -1.27705,1.21479 -0.70239,0.85976 -2.55126,3.04549 -4.10861,4.8572 l -2.83155,3.29399 0.015,2.65575 c 0.008,1.46064 0.0989,2.4198 0.20144,2.13143 0.11505,-0.32345 0.15782,-0.23529 0.11171,0.23018 -0.0884,0.89205 2.30802,3.55968 2.4932,2.77536 0.0653,-0.27668 0.14426,-0.27405 0.2106,0.007 0.18075,0.76568 2.57754,1.07954 4.03424,0.52833 1.32968,-0.50318 2.36777,-0.23178 1.69329,0.4427 -0.4847,0.4847 -2.65134,1.32161 -3.12933,1.20875 -0.22842,-0.0539 -0.51063,0.116 -0.62714,0.3776 -0.11649,0.2616 -0.2496,0.31551 -0.29583,0.11975 -0.0462,-0.19574 -0.86073,-0.49828 -1.81004,-0.67229 -1.66055,-0.30438 -4.86317,-2.15467 -4.44802,-2.56981 0.25231,-0.25231 -0.80447,-0.74728 -1.35797,-0.63607 -0.23096,0.0464 -0.569,-0.042 -0.75121,-0.19651 -0.18221,-0.15451 -0.54745,-0.46456 -0.81163,-0.68902 -0.39904,-0.33902 -0.58251,-0.25486 -1.08389,0.49722 -0.87377,1.31067 -0.82374,2.40249 0.15612,3.40637 0.46255,0.47434 1.20607,1.40165 1.65172,2.06112 0.58316,0.86294 0.96426,1.18477 1.35948,1.14802 0.30205,-0.0281 1.39455,0.64065 2.42778,1.48606 2.81821,2.30588 3.83433,2.29105 4.97027,1.62708 l 2.24827,-1.31416 c 0.54577,-0.31903 0.86246,0.0193 1.80069,-1.14654 0.60211,-0.74815 2.7739,-3.38215 4.82622,-5.8533 z m -78.83693,77.01224 c -0.0647,-0.69595 -1.29651,-1.50648 -1.43001,-0.94092 -0.0462,0.19566 -0.2033,0.23643 -0.34887,0.0909 -0.14569,-0.14568 -0.29973,-0.11731 -0.34232,0.063 -0.0426,0.18036 -2.93206,3.20251 -6.42106,6.71588 -3.89037,3.91737 -6.36264,6.59198 -6.39271,6.91556 -0.0521,0.56082 0.75406,1.08275 1.4665,0.94944 0.23556,-0.0441 3.3755,-3.02407 6.97764,-6.62223 5.43936,-5.43347 6.5394,-6.64881 6.49083,-7.17163 z M 359.43555,700.93243 c -0.6705,-0.081 -0.67048,-0.0978 -10e-6,-0.17892 0.70419,-0.0851 1.02426,-0.0161 0.82926,0.17892 -0.0492,0.0492 -0.42236,0.0492 -0.82925,0 z"
       id="path4762"
       inkscape:connector-curvature="0"
       sodipodi:nodetypes="sccsccsccccssssssscscssssssscsssccsssssccssscsssscsssscsssssssssssscsscccsssssssssssscsscssssssssscccssssssssssssssccssscssssscssssssscssscsscccssscscsssssssscsscssscssssssccssssccsssssssssssssssssscssscssscssssssscscssscsssssssssscssscsssscsssssssccssccsssssssssscsssssssscsssscsccsccccsccccssccscscssssscssssscsssscsscsssssssscssscccscsssssssssssssssssscssc" />
    <flowRoot
       xml:space="preserve"
       id="flowRoot5314"
       style="font-style:normal;font-weight:normal;font-size:240.94958496px;line-height:125%;font-family:sans-serif;text-align:start;letter-spacing:0px;word-spacing:0px;text-anchor:start;fill:#000000;fill-opacity:1;stroke:none;stroke-width:0;stroke-linecap:butt;stroke-linejoin:miter;stroke-opacity:1"
       transform="matrix(1.0044282,0,0,1.0044282,39.075215,1.9016969)"><flowRegion
         id="flowRegion5316"><rect
           id="rect5318"
           width="494.80719"
           height="456.08313"
           x="50.631279"
           y="610.68872"
           style="font-size:240.94958496px;fill:#000000;fill-opacity:1;stroke:none;stroke-width:0" /></flowRegion><flowPara
         id="flowPara5320"
         style="font-style:normal;font-variant:normal;font-weight:bold;font-stretch:normal;font-size:240.94958496px;font-family:'AR DESTINE';-inkscape-font-specification:'AR DESTINE Thin';fill:#000000;fill-opacity:1;stroke:none;stroke-width:0">+</flowPara></flowRoot>  </g>
</svg>
